<?xml version="1.0" standalone="no"?>
<!DOCTYPE svg PUBLIC "-//W3C//DTD SVG 20010904//EN"
 "http://www.w3.org/TR/2001/REC-SVG-20010904/DTD/svg10.dtd">
<svg version="1.0" xmlns="http://www.w3.org/2000/svg"
 width="351.000000pt" height="419.000000pt" viewBox="0 0 351.000000 419.000000"
 preserveAspectRatio="xMidYMid meet">

<g transform="translate(0.000000,419.000000) scale(0.100000,-0.100000)"
fill="#000000" stroke="none">
<path d="M677 3643 l2 -328 331 -3 330 -2 0 330 0 330 -332 0 -333 0 2 -327z"/>
<path d="M1372 3137 l-693 -832 -2 -543 -2 -542 333 0 332 0 0 423 0 422 104
124 c56 68 106 124 109 125 3 0 152 -244 330 -544 l324 -545 377 -3 377 -2
-15 22 c-8 13 -217 376 -466 808 -249 432 -457 790 -462 797 -6 7 65 98 224
284 128 150 342 400 475 556 l242 283 -447 0 -447 -1 -693 -832z"/>
<path d="M354 927 c-2 -7 -3 -71 -2 -143 3 -121 4 -129 23 -129 17 0 20 8 23
47 5 74 22 77 68 10 38 -55 41 -57 87 -58 44 -1 48 0 55 29 7 28 11 30 52 30
42 0 45 -2 54 -31 9 -32 20 -38 44 -24 9 7 4 35 -24 128 -46 151 -49 156 -82
152 -24 -3 -28 -12 -62 -123 -20 -66 -40 -119 -44 -118 -15 3 -85 117 -79 127
4 6 20 28 36 48 29 37 31 68 4 68 -8 0 -34 -28 -58 -62 l-44 -63 -3 63 c-3 54
-5 62 -23 62 -11 0 -22 -6 -25 -13z m339 -169 c-5 -9 -63 -11 -63 -2 0 3 8 31
17 62 l16 57 17 -55 c9 -30 15 -58 13 -62z"/>
<path d="M805 928 c-3 -8 -4 -72 -3 -144 3 -121 4 -129 23 -129 18 0 20 8 23
88 1 48 6 87 10 87 4 0 16 -18 26 -41 24 -49 43 -48 73 6 l22 40 3 -90 c3 -82
5 -90 23 -90 19 0 20 8 23 143 l3 143 -27 -3 c-20 -2 -32 -15 -53 -55 -14 -29
-28 -52 -31 -53 -3 0 -19 24 -35 53 -31 52 -69 74 -80 45z"/>
<path d="M1084 927 c-2 -7 -3 -71 -2 -143 3 -121 4 -129 23 -129 17 0 20 8 23
47 5 76 23 78 68 8 40 -61 48 -67 73 -51 11 7 5 24 -33 85 l-47 76 36 42 c36
43 42 70 14 76 -9 2 -33 -22 -60 -59 l-44 -61 -3 61 c-3 53 -5 61 -23 61 -11
0 -22 -6 -25 -13z"/>
<path d="M1597 933 c-11 -11 -8 -210 4 -236 23 -51 113 -64 154 -22 24 23 25
30 25 145 0 120 0 121 -22 118 -22 -3 -23 -7 -26 -113 -2 -89 -6 -112 -19
-122 -22 -17 -38 -16 -57 3 -13 12 -16 39 -16 125 0 99 -2 109 -18 109 -10 0
-22 -3 -25 -7z"/>
<path d="M2043 923 c-18 -7 -16 -30 4 -37 21 -8 38 8 30 28 -7 16 -13 18 -34
9z"/>
<path d="M2833 923 c-18 -7 -16 -30 3 -37 24 -9 47 13 33 30 -12 15 -16 16
-36 7z"/>
<path d="M2914 905 c-10 -26 0 -224 13 -236 6 -6 29 -12 49 -13 50 -1 59 27
15 42 -28 10 -31 15 -31 56 0 44 1 46 30 46 23 0 30 4 30 20 0 16 -7 20 -30
20 -28 0 -30 2 -30 40 0 34 -3 40 -20 40 -11 0 -23 -7 -26 -15z"/>
<path d="M1824 827 c-3 -8 -4 -49 -2 -93 3 -71 5 -79 23 -79 17 0 21 8 25 62
6 70 21 94 48 77 12 -8 18 -29 22 -75 4 -56 8 -64 25 -64 18 0 20 8 23 70 2
60 0 74 -18 93 -22 24 -50 28 -80 12 -13 -7 -21 -7 -25 0 -9 14 -35 12 -41 -3z"/>
<path d="M2034 827 c-3 -8 -4 -49 -2 -93 3 -71 5 -79 23 -79 18 0 20 8 23 93
3 87 2 92 -18 92 -11 0 -23 -6 -26 -13z"/>
<path d="M2114 827 c-3 -9 10 -51 29 -94 28 -63 38 -78 56 -78 18 0 29 15 58
83 26 59 33 86 25 94 -19 19 -39 1 -58 -51 -10 -28 -21 -51 -25 -51 -3 0 -15
24 -26 53 -20 52 -48 73 -59 44z"/>
<path d="M2336 819 c-22 -18 -26 -28 -26 -74 0 -46 4 -56 26 -74 42 -33 134
-24 134 13 0 10 -14 13 -52 12 -42 -1 -53 2 -56 16 -3 14 6 17 50 20 52 3 53
4 56 35 6 65 -74 97 -132 52z m87 -33 c8 -19 -1 -26 -35 -26 -26 0 -37 17 -21
33 12 12 51 7 56 -7z"/>
<path d="M2512 748 c3 -85 5 -93 23 -93 17 0 21 8 25 63 5 64 16 82 53 82 10
0 17 8 17 20 0 23 -38 28 -59 8 -11 -10 -14 -10 -18 0 -3 6 -13 12 -24 12 -18
0 -20 -6 -17 -92z"/>
<path d="M2664 815 c-27 -42 -16 -58 64 -94 28 -12 9 -26 -33 -24 -46 1 -57
-11 -33 -35 19 -19 92 -15 111 6 35 38 16 77 -47 97 -38 12 -32 30 10 31 16 0
36 4 44 9 21 13 -17 35 -62 35 -29 0 -41 -6 -54 -25z"/>
<path d="M2827 833 c-10 -10 -8 -156 2 -172 5 -8 16 -11 25 -8 13 5 16 23 16
97 0 81 -2 90 -18 90 -10 0 -22 -3 -25 -7z"/>
<path d="M3043 824 c-3 -10 9 -47 30 -89 31 -62 34 -75 23 -96 -6 -13 -21 -25
-33 -27 -26 -4 -36 -27 -18 -42 19 -15 63 -2 81 25 8 12 32 68 55 125 31 80
37 105 27 112 -27 17 -38 6 -57 -54 l-19 -63 -17 40 c-10 22 -21 50 -26 63
-10 26 -37 29 -46 6z"/>
<path d="M1387 802 c-22 -24 -21 -45 1 -65 24 -22 55 -21 75 1 22 24 21 45 -1
65 -24 22 -55 21 -75 -1z"/>
<path d="M450 510 c-19 -19 -20 -31 -18 -148 3 -119 4 -127 23 -127 18 0 20 8
23 72 3 70 4 72 30 75 16 2 28 10 30 21 3 13 -3 17 -28 17 -29 0 -31 2 -28 32
2 25 9 34 28 38 14 3 26 14 28 23 5 26 -62 23 -88 -3z"/>
<path d="M713 522 c-7 -4 -30 -66 -52 -137 -34 -111 -38 -132 -26 -144 20 -20
42 -7 50 28 6 28 10 31 46 31 36 0 41 -3 55 -35 15 -37 20 -40 43 -26 13 8 9
29 -24 138 -41 139 -59 166 -92 145z m46 -134 c6 -26 11 -48 11 -50 0 -5 -60
-2 -62 3 -4 12 26 109 32 102 4 -4 12 -29 19 -55z"/>
<path d="M1294 517 c-2 -7 -3 -74 -2 -148 3 -126 4 -134 23 -134 19 0 20 8 23
148 2 143 2 147 -18 147 -11 0 -23 -6 -26 -13z"/>
<path d="M1790 466 c0 -61 -9 -81 -25 -56 -10 17 -61 11 -79 -9 -26 -28 -31
-91 -12 -129 19 -36 59 -51 88 -33 14 9 23 9 33 1 7 -6 20 -7 29 -4 14 6 16
24 14 148 -3 138 -4 141 -25 144 -22 3 -23 0 -23 -62z m-9 -110 c21 -46 -7
-95 -46 -80 -38 15 -25 104 15 104 12 0 25 -10 31 -24z"/>
<path d="M1983 505 c-11 -8 -23 -26 -27 -39 -10 -42 9 -72 66 -103 41 -22 53
-33 53 -52 0 -37 -29 -50 -66 -28 -42 24 -61 22 -57 -5 7 -47 104 -65 152 -27
19 15 26 30 26 55 0 51 -14 71 -70 99 -57 29 -66 40 -49 61 10 12 24 15 60 10
51 -7 69 4 49 29 -16 20 -109 20 -137 0z"/>
<path d="M1391 496 c-9 -10 -8 -16 4 -26 13 -11 19 -11 32 2 16 17 10 38 -11
38 -8 0 -19 -6 -25 -14z"/>
<path d="M2344 495 c-8 -19 12 -36 33 -28 19 7 12 37 -10 41 -9 2 -20 -4 -23
-13z"/>
<path d="M262 413 c-19 -7 -42 -58 -42 -93 0 -42 47 -90 88 -90 16 0 41 9 56
21 22 17 26 28 26 73 0 42 -5 57 -23 74 -22 21 -73 28 -105 15z m66 -45 c16
-16 16 -70 0 -86 -16 -16 -23 -15 -42 4 -29 28 -15 94 19 94 6 0 16 -5 23 -12z"/>
<path d="M877 413 c-4 -3 -7 -61 -7 -128 0 -95 3 -125 15 -135 23 -19 35 -2
35 51 0 53 1 55 29 38 10 -7 30 -9 45 -5 53 13 71 121 29 169 -18 19 -78 23
-89 6 -4 -8 -9 -8 -17 0 -12 12 -30 14 -40 4z m113 -52 c15 -29 12 -56 -9 -75
-23 -21 -49 -11 -57 21 -14 55 41 100 66 54z"/>
<path d="M1087 413 c-4 -3 -7 -64 -7 -134 0 -92 3 -128 13 -131 27 -10 37 4
37 53 0 46 1 49 19 39 31 -16 56 -12 79 13 30 32 31 118 2 147 -21 21 -74 27
-86 9 -4 -8 -9 -8 -17 0 -12 12 -30 14 -40 4z m102 -47 c17 -20 10 -77 -11
-89 -24 -16 -48 8 -48 47 0 49 34 73 59 42z"/>
<path d="M1390 331 c0 -92 8 -113 36 -90 11 9 14 31 12 93 -3 75 -5 81 -25 84
-22 3 -23 1 -23 -87z"/>
<path d="M1495 395 c-25 -24 -34 -81 -19 -120 16 -42 117 -60 147 -27 23 25
12 33 -34 26 -25 -4 -44 -2 -54 6 -26 22 -17 30 33 30 26 0 53 5 60 12 34 34
-14 98 -73 98 -25 0 -44 -8 -60 -25z m93 -37 c3 -15 -4 -18 -32 -18 -34 0 -47
15 -29 34 13 13 58 1 61 -16z"/>
<path d="M2182 397 c-32 -34 -31 -109 3 -142 37 -38 125 -29 125 11 0 13 -7
15 -36 10 -45 -9 -64 6 -64 49 0 41 20 59 59 50 33 -7 49 8 31 30 -20 24 -93
19 -118 -8z"/>
<path d="M2345 407 c-3 -7 -5 -49 -3 -93 3 -71 5 -79 23 -79 19 0 20 7 20 90
0 78 -2 90 -18 93 -9 2 -19 -3 -22 -11z"/>
<path d="M2459 407 c-74 -57 -34 -177 58 -177 43 0 80 21 69 38 -4 7 -23 9
-50 6 -38 -6 -46 -4 -55 15 -11 20 -9 21 33 21 61 0 76 8 76 39 0 56 -85 93
-131 58z m80 -40 c14 -18 4 -27 -29 -27 -32 0 -41 7 -33 26 7 18 47 18 62 1z"/>
<path d="M2627 413 c-4 -3 -7 -43 -7 -89 0 -66 3 -83 16 -88 26 -10 34 3 34
58 0 63 20 97 47 80 13 -8 19 -28 23 -75 4 -56 8 -64 25 -64 18 0 20 8 23 72
2 62 0 75 -18 93 -22 22 -69 27 -88 8 -9 -9 -12 -9 -12 0 0 13 -32 17 -43 5z"/>
<path d="M2850 400 c-15 -15 -20 -33 -20 -75 0 -42 5 -60 20 -75 23 -23 87
-27 115 -7 27 20 10 40 -29 33 -46 -8 -58 4 -54 55 l3 44 43 -2 c35 -1 42 1
42 17 0 35 -87 43 -120 10z"/>
<path d="M3026 399 c-22 -18 -26 -28 -26 -74 0 -46 4 -56 26 -74 43 -34 134
-23 134 15 0 13 -7 15 -35 10 -43 -8 -75 0 -75 20 0 10 12 14 39 14 59 0 71 8
71 46 0 60 -79 86 -134 43z m89 -39 c0 -10 -12 -16 -32 -18 -32 -3 -45 13 -26
32 13 12 58 2 58 -14z"/>
<path d="M3204 395 c-23 -35 -6 -73 36 -81 38 -8 59 -31 36 -40 -9 -3 -32 -3
-50 0 -42 8 -54 -7 -24 -28 47 -33 128 -9 128 38 0 26 -23 50 -62 62 -36 12
-32 29 8 30 73 2 62 44 -12 44 -36 0 -47 -5 -60 -25z"/>
</g>
</svg>
